<svg viewBox="0 0 190.53 165" xmlns="http://www.w3.org/2000/svg"><g fill="none" stroke="#fff" stroke-miterlimit="10" stroke-width="1.058"><path d="M18.428 165.181H-.53v-18.958h18.958z"/><path d="M18.428 146.361H-.53v-18.958h18.958zM18.428 108.711H-.53V89.754h18.958zM18.428 71.074H-.53V52.117h18.958z"/><path d="M37.374 165.181H18.416v-18.958h18.958z"/><path d="M37.374 146.361H18.416v-18.958h18.958z"/><path d="M37.374 127.541H18.416v-18.958h18.958z"/><path d="M37.374 108.711H18.416V89.754h18.958z"/><path d="M37.374 89.891H18.416V70.933h18.958zM56.32 127.541H37.362v-18.958H56.32z"/><path d="M56.32 108.711H37.362V89.754H56.32z"/><path d="M56.32 89.891H37.362V70.933H56.32zM75.266 165.181H56.308v-18.958h18.958zM75.266 127.541H56.308v-18.958h18.958z"/><path d="M94.209 165.181H75.251v-18.958h18.958z"/><path d="M94.209 146.361H75.251v-18.958h18.958z"/><path d="M113.159 165.181H94.201v-18.958h18.958zM113.159 127.541H94.201v-18.958h18.958z"/><path d="M132.099 146.361h-18.958v-18.958h18.958zM132.099 108.711h-18.958V89.754h18.958z"/><path d="M151.049 165.181h-18.958v-18.958h18.958z"/><path d="M151.049 146.361h-18.958v-18.958h18.958z"/><path d="M169.999 165.181h-18.958v-18.958h18.958z"/><path d="M188.939 165.181h-18.958v-18.958h18.958z"/></g></svg>