<svg viewBox="0 0 190.53 165" xmlns="http://www.w3.org/2000/svg"><defs><clipPath id="a"><path d="M0 46.206h450.7v406.2H0z"/></clipPath><clipPath id="b"><path d="M-153.82 547.97h540.08v-430.2h-540.08z"/></clipPath><clipPath id="c"><path d="M1630.5 0h289.53v238.83H1630.5z"/></clipPath><clipPath id="d"><path d="M1694.9 167.26h540.08v-430.2H1694.9z"/></clipPath></defs><g fill="none" stroke="#bd7676" stroke-miterlimit="10" stroke-width="1.058"><g clip-path="url(#a)" transform="matrix(.35217 0 0 -.35217 -.48 158.63)" stroke="#fff" stroke-opacity=".5"><g clip-path="url(#b)" opacity=".19" stroke-width="3"><path d="M8.831 119.28h-53.738v53.738H8.831z"/><path d="M8.831 172.63h-53.738v53.738H8.831zM8.831 332.68h-53.738v53.738H8.831z"/><path d="M8.831 386.03h-53.738v53.738H8.831z"/><path d="M8.831 439.38h-53.738v53.738H8.831zM62.535 119.28H8.797v53.738h53.738z"/><path d="M62.535 172.63H8.797v53.738h53.738z"/><path d="M62.535 225.98H8.797v53.738h53.738zM62.535 332.68H8.797v53.738h53.738z"/><path d="M116.24 225.98H62.502v53.738h53.738z"/><path d="M116.24 279.33H62.502v53.738h53.738zM169.94 119.28h-53.738v53.738h53.738z"/><path d="M169.94 172.63h-53.738v53.738h53.738z"/><path d="M169.94 225.98h-53.738v53.738h53.738zM169.94 332.68h-53.738v53.738h53.738zM223.65 119.28h-53.738v53.738h53.738z"/><path d="M223.65 279.33h-53.738v53.738h53.738zM223.65 386.03h-53.738v53.738h53.738zM277.35 172.63h-53.738v53.738h53.738z"/><path d="M277.35 225.98h-53.738v53.738h53.738z"/><path d="M277.35 279.33h-53.738v53.738h53.738zM331.06 119.28h-53.738v53.738h53.738z"/><path d="M331.06 172.63h-53.738v53.738h53.738z"/><path d="M331.06 225.98h-53.738v53.738h53.738z"/><path d="M384.76 225.98h-53.738v53.738h53.738z"/></g></g><g clip-path="url(#c)" transform="matrix(1.3333 0 0 -1.3333 -2310.7 252.81)" stroke-opacity="0"><g clip-path="url(#d)" opacity=".19" stroke="none"><path d="M1911.2 165.76h53.738v-53.738H1911.2z"/><path d="M1911.2 112.41h53.738V58.672H1911.2z"/><path d="M1911.2 59.057h53.738V5.319H1911.2zM1857.5 165.76h53.738v-53.738H1857.5z"/><path d="M1857.5 5.705h53.738v-53.738H1857.5zM1803.8 112.41h53.738V58.672H1803.8z"/><path d="M1803.8 59.057h53.738V5.319H1803.8z"/><path d="M1803.8 5.705h53.738v-53.738H1803.8zM1750.1 165.76h53.738v-53.738H1750.1z"/><path d="M1750.1 112.41h53.738V58.672H1750.1z"/><path d="M1750.1 59.057h53.738V5.319H1750.1z"/><path d="M1696.4 59.057h53.738V5.319H1696.4z"/></g></g></g></svg>