<svg viewBox="0 0 190.53 165" xmlns="http://www.w3.org/2000/svg"><defs><clipPath id="a"><path d="M1630.5 0h289.53v238.83H1630.5z"/></clipPath><clipPath id="b"><path d="M1694.9 167.26h540.08v-430.2H1694.9z"/></clipPath></defs><g clip-path="url(#a)" transform="matrix(.34998 0 0 -.34998 -479.9 165.8)" stroke="#fff" stroke-opacity=".5" fill="none" stroke-miterlimit="10" stroke-width="1.058"><g clip-path="url(#b)" opacity=".19" stroke-width="3"><path d="M1911.2 165.76h53.738v-53.738H1911.2z"/><path d="M1911.2 112.41h53.738V58.672H1911.2z"/><path d="M1911.2 59.057h53.738V5.319H1911.2zM1857.5 165.76h53.738v-53.738H1857.5z"/><path d="M1857.5 5.705h53.738v-53.738H1857.5zM1803.8 112.41h53.738V58.672H1803.8z"/><path d="M1803.8 59.057h53.738V5.319H1803.8z"/><path d="M1803.8 5.705h53.738v-53.738H1803.8zM1750.1 165.76h53.738v-53.738H1750.1z"/><path d="M1750.1 112.41h53.738V58.672H1750.1z"/><path d="M1750.1 59.057h53.738V5.319H1750.1z"/><path d="M1696.4 59.057h53.738V5.319H1696.4z"/></g></g></svg>