<?xml version="1.0" encoding="utf-8"?>
<!-- Generator: Adobe Illustrator 26.1.0, SVG Export Plug-In . SVG Version: 6.00 Build 0)  -->
<svg version="1.1" id="Ebene_1" xmlns="http://www.w3.org/2000/svg" xmlns:xlink="http://www.w3.org/1999/xlink" x="0px" y="0px"
	 viewBox="0 0 787.12 590.34" style="enable-background:new 0 0 787.12 590.34;" xml:space="preserve">
<style type="text/css">
	.st0{fill:none;}
	.st1{fill:#80796E;}
</style>
<rect class="st0" width="787.12" height="590.34"/>
<g>
	<path class="st1" d="M545.5,119.44H241.62c-26.4,0-47.88,21.48-47.88,47.88v255.69c0,26.4,21.48,47.88,47.88,47.88H545.5
		c26.4,0,47.88-21.48,47.88-47.88V167.32C593.38,140.92,571.9,119.44,545.5,119.44z M580.11,423.02c0,19.08-15.53,34.61-34.61,34.61
		H241.62c-19.08,0-34.61-15.52-34.61-34.61V167.32c0-19.08,15.52-34.61,34.61-34.61H545.5c19.08,0,34.61,15.53,34.61,34.61V423.02z"
		/>
	<path class="st1" d="M494.28,304.99c-7.64-13.24-26.75-13.24-34.39,0l-31.65,54.82L359,239.88c-7.21-12.49-25.24-12.49-32.45,0
		l-92.84,160.81c-7.21,12.49,1.8,28.1,16.22,28.1h172.87h12.81h95.74c15.29,0,24.84-16.55,17.2-29.79L494.28,304.99z"/>
	<circle class="st1" cx="477.08" cy="228.17" r="33.24"/>
</g>
</svg>
