<svg xmlns="http://www.w3.org/2000/svg" fill="none" viewBox="0 0 226.4 80"><path d="M28.126 61.5a8.14 8.14 0 0 0-1.114-2.915c-.624-.977-1.485-1.254-4.114-1.254h-2.643c-1.099 0-1.247.102-1.247 1.18v8.439h3.668c3.311 0 3.534-.32 3.98-2.638h1.099v6.966h-1.1c-.445-2.448-.668-2.915-3.98-2.915h-3.667v6.398c0 3.177.326 3.352 3.638 3.6v1.05H12.399v-1.05c2.867-.204 3.193-.423 3.193-3.6V60.596c0-3.133-.297-3.308-3.118-3.527v-1.093h16.335c0 1.195.223 3.57.371 5.349l-1.054.174ZM69.158 57.07c-2.168.19-2.97.685-3.208 2.128a52.825 52.825 0 0 0-.223 5.698v3.177c0 4.139-.653 7.287-2.747 9.4a9.08 9.08 0 0 1-3.042 1.921 9.214 9.214 0 0 1-3.566.6 9.69 9.69 0 0 1-5.94-1.763c-2.169-1.618-3.193-4.372-3.193-8.54v-8.905c0-3.279-.342-3.425-3.208-3.716v-1.05h9.772v1.05c-2.822.218-3.119.437-3.119 3.716v8.147c0 5.829 2.272 9.05 6.727 9.05 5.094 0 6.787-4.14 6.787-10.202v-2.914a43.458 43.458 0 0 0-.253-5.83c-.222-1.37-.995-1.865-3.564-2.055v-1.049h8.821l-.044 1.137ZM103.06 61.719a8.424 8.424 0 0 0-1.247-3.308c-.624-.802-1.248-1.079-3.936-1.079h-2.42v17.62c0 2.914.297 3.25 3.742 3.453v1.05H88.403v-1.05c3.311-.204 3.594-.568 3.594-3.454V57.274h-2.08c-3.058 0-3.786.32-4.261 1.107a10.083 10.083 0 0 0-1.218 3.28h-1.144c.149-2.23.372-4.65.446-6.588h.772c.52.83.995.89 2.02.89h14.583a1.93 1.93 0 0 0 1.07-.172c.332-.158.61-.407.801-.718h.802c0 1.618.193 4.372.371 6.485l-1.099.16ZM143.736 57.07c-2.168.19-2.97.685-3.207 2.128a52.877 52.877 0 0 0-.223 5.698v3.177c0 4.139-.653 7.287-2.747 9.4a9.102 9.102 0 0 1-3.043 1.92 9.23 9.23 0 0 1-3.566.6 9.694 9.694 0 0 1-5.94-1.762c-2.168-1.618-3.207-4.372-3.207-8.54v-8.905c0-3.279-.327-3.425-3.193-3.716v-1.05h9.771v1.05c-2.821.218-3.118.437-3.118 3.716v8.147c0 5.829 2.272 9.05 6.712 9.05 5.108 0 6.801-4.14 6.801-10.202v-2.914a43.326 43.326 0 0 0-.252-5.83c-.223-1.37-.995-1.865-3.564-2.055v-1.049h8.821l-.045 1.137ZM179.909 79.746c-.416.021-.832.021-1.248 0a6.845 6.845 0 0 1-3.597-.785 6.684 6.684 0 0 1-2.64-2.523c-1.218-1.69-2.495-3.891-3.564-5.655a2.95 2.95 0 0 0-1.29-1.196 3.018 3.018 0 0 0-1.754-.261h-1.069v5.669c0 3.017.326 3.28 3.222 3.483v1.05h-9.905v-1.05c2.97-.204 3.297-.466 3.297-3.483V60.611c0-3.031-.327-3.206-3.163-3.468v-1.05h9.34a10.406 10.406 0 0 1 5.94 1.268 5.339 5.339 0 0 1 1.878 2.037c.432.829.635 1.755.588 2.685 0 3.104-1.99 4.97-4.678 6.135.638 1.152 2.138 3.556 3.237 5.188a29.396 29.396 0 0 0 2.97 3.775 5.283 5.283 0 0 0 2.569 1.661l-.133.904Zm-13.544-11.659a6.027 6.027 0 0 0 3.921-1.005 5.273 5.273 0 0 0 1.506-1.958c.338-.76.489-1.587.439-2.414 0-3.892-2.524-5.334-5.168-5.334a3.605 3.605 0 0 0-1.945.35c-.268.218-.371.611-.371 1.559v8.86l1.618-.058ZM212.284 73.727c-.193 1.268-.965 4.62-1.247 5.728h-17.924v-1.05c3.297-.247 3.623-.539 3.623-3.483V60.684c0-3.22-.326-3.352-3.118-3.614v-1.05h16.528c0 .875.193 3.323.341 5.232l-1.143.19a8.642 8.642 0 0 0-1.218-3.075c-.549-.787-1.485-1.035-4.069-1.035h-2.613c-1.173 0-1.277.102-1.277 1.18v8.118h3.296c3.267 0 3.52-.291 3.965-2.71h1.114v6.965h-1.114c-.475-2.565-.772-2.783-3.965-2.783h-3.296v6.66c0 1.69.208 2.521.876 2.915a8.507 8.507 0 0 0 3.742.422c2.643 0 3.713-.291 4.529-1.18a12.007 12.007 0 0 0 1.871-3.425l1.099.233ZM33.353 25.023c0 8.292-6.192 12.256-11.39 12.256a11.549 11.549 0 0 1-4.444-.832 11.375 11.375 0 0 1-3.761-2.468 11.131 11.131 0 0 1-2.481-3.713 10.964 10.964 0 0 1-.808-4.369 11.545 11.545 0 0 1 .687-4.572 11.706 11.706 0 0 1 2.43-3.958 11.961 11.961 0 0 1 3.799-2.732 12.156 12.156 0 0 1 4.578-1.082 11.563 11.563 0 0 1 4.431.874 11.387 11.387 0 0 1 3.735 2.498 11.142 11.142 0 0 1 2.448 3.728c.554 1.391.818 2.877.776 4.37Zm-17.998-.773c0 6.485 2.88 11.338 7.187 11.338 3.252 0 5.94-2.375 5.94-9.429 0-6.033-2.48-10.915-7.039-10.915-3.252 0-6.088 3.191-6.088 9.006ZM52.198 36.667v-1.341c3.104-.306 3.475-.729 3.475-4.27v-8.599c0-3.555-1.262-5.829-4.782-5.829a9.462 9.462 0 0 0-5.717 2.623v12.096c0 3.513.312 3.717 3.416 4.023v1.34H37.244v-1.34c3.564-.365 3.831-.612 3.831-4.023V20.694c0-3.293-.311-3.454-3.148-3.964v-1.195a32.112 32.112 0 0 0 7.292-2.098v4.11c1.054-.773 2.197-1.546 3.52-2.42a8.217 8.217 0 0 1 4.35-1.574c4.143 0 6.772 2.842 6.772 7.826v9.94c0 3.511.252 3.715 3.297 4.021v1.341l-10.96-.014ZM85.998 32.295c-3.312 4.066-6.935 4.984-8.554 4.984-6.46 0-10.232-5.144-10.232-10.959a13.12 13.12 0 0 1 3.46-9.021 10.662 10.662 0 0 1 3.458-2.678 10.851 10.851 0 0 1 4.264-1.082 8.211 8.211 0 0 1 5.527 2.372 7.913 7.913 0 0 1 2.344 5.454c0 1.035-.267 1.457-1.218 1.647-.95.19-7.425.67-13.691.889 0 6.995 4.143 9.88 7.81 9.88a8.644 8.644 0 0 0 5.94-2.579l.892 1.093Zm-14.39-10.507c2.97 0 5.836 0 8.91-.16.936 0 1.262-.307 1.262-1.035a4.641 4.641 0 0 0-.218-1.893 4.702 4.702 0 0 0-.963-1.654 4.805 4.805 0 0 0-1.551-1.146 4.886 4.886 0 0 0-1.886-.452c-2.45 0-4.752 2.157-5.554 6.34ZM122.305 32.295c-3.296 4.066-6.92 4.984-8.553 4.984-6.445 0-10.232-5.144-10.232-10.959a13.124 13.124 0 0 1 3.46-9.021 10.661 10.661 0 0 1 3.458-2.678 10.85 10.85 0 0 1 4.264-1.082 8.209 8.209 0 0 1 5.526 2.372 7.912 7.912 0 0 1 2.345 5.454c0 1.035-.268 1.457-1.203 1.647-.936.19-7.425.67-13.707.889 0 6.995 4.143 9.88 7.826 9.88a8.703 8.703 0 0 0 5.94-2.579l.876 1.093ZM107.93 21.788c2.971 0 5.822 0 8.911-.16.95 0 1.262-.307 1.262-1.035a4.641 4.641 0 0 0-.219-1.893 4.702 4.702 0 0 0-.963-1.654 4.803 4.803 0 0 0-1.551-1.146 4.88 4.88 0 0 0-1.886-.452c-2.45 0-4.766 2.157-5.554 6.34ZM143.513 37.279a4.35 4.35 0 0 1-2.465-.977 5.323 5.323 0 0 1-1.233-2.346c-2.094 1.457-4.618 3.294-6.192 3.294a6.43 6.43 0 0 1-2.429-.488 6.332 6.332 0 0 1-2.052-1.367 6.208 6.208 0 0 1-1.359-2.035 6.115 6.115 0 0 1-.457-2.392c0-2.52 1.366-4.124 4.247-5.1a38.169 38.169 0 0 0 8.138-3.338v-.932c0-3.716-1.782-5.83-4.455-5.83a3.02 3.02 0 0 0-1.299.246 2.965 2.965 0 0 0-1.062.774 7.381 7.381 0 0 0-1.574 3.41c-.067.337-.252.64-.523.856-.272.216-.613.331-.962.325a2.587 2.587 0 0 1-1.558-.705 2.503 2.503 0 0 1-.759-1.51c0-.773.683-1.34 1.678-2.055a23.64 23.64 0 0 1 7.871-3.614 6.912 6.912 0 0 1 4.306 1.457c1.842 1.458 2.362 3.6 2.362 6.281v9.575c0 2.317.95 3.09 1.841 3.09a4.066 4.066 0 0 0 1.886-.569l.52 1.341-4.47 2.609Zm-3.832-12.97c-1.098.568-3.623 1.646-4.722 2.156-2.049.933-3.208 1.91-3.208 3.76a3.73 3.73 0 0 0 1.015 2.751c.347.37.766.667 1.232.875.466.208.969.323 1.481.338a7.489 7.489 0 0 0 4.202-1.85v-8.03ZM158.468 19.004c1.574-2.58 3.831-5.466 6.355-5.466a2.76 2.76 0 0 1 1.833.456c.535.362.921.9 1.086 1.518.165.617.1 1.273-.185 1.846a2.697 2.697 0 0 1-1.367 1.281 1.25 1.25 0 0 1-1.485-.102 2.795 2.795 0 0 0-.973-.788 2.846 2.846 0 0 0-1.225-.29c-1.366 0-2.97 1.544-4.203 4.372v9.414c0 3.41.268 3.716 4.307 4.022v1.341h-12.073v-1.34c3.252-.306 3.623-.612 3.623-4.023V20.592c0-3.396-.267-3.614-3.252-4.022v-1.137a29.928 29.928 0 0 0 7.425-2.098v5.61l.134.059ZM181.973 36.608a5.31 5.31 0 0 1-2.198.67c-3.311 0-5.138-2.054-5.138-6.12V16.16h-3.638l-.208-.51 1.411-1.457h2.42V10.42l3.401-3.396.743.102v7.068h5.94c.221.308.311.688.253 1.06a1.45 1.45 0 0 1-.565.937h-5.614v13.247c0 4.168 1.723 4.94 2.97 4.94a7.764 7.764 0 0 0 3.253-.874l.475 1.34-3.505 1.764ZM203.135 36.667v-1.34c3.044-.307 3.46-.613 3.46-3.965v-8.554c0-4.227-1.633-6.325-5.138-6.325a7.54 7.54 0 0 0-3.019.737 7.41 7.41 0 0 0-2.446 1.886v12.256c0 3.294.268 3.658 3.356 3.964v1.34h-11.122v-1.34c3.148-.262 3.623-.568 3.623-3.964V6.792c0-3.236-.104-3.498-3.564-3.804V1.793A57.975 57.975 0 0 0 195.992 0v17.299a11.598 11.598 0 0 1 7.425-3.76c4.262 0 7.247 2.623 7.247 8.744v9.02c0 3.396.371 3.702 3.46 3.965v1.34l-10.989.059Z" fill="#fff"/><path d="M225.485 44.74H0v2.332h221.49l-3.148 3.294c-1.025 1.005-.847 1.21.386.466l6.772-3.76c1.232-.787 1.173-1.457-.015-2.332Z" fill="#B5883F"/></svg>