<svg xmlns="http://www.w3.org/2000/svg" xml:space="preserve" viewBox="0 0 110 126">
  <path fill="#AAA" d="M83.31 46.947c.384.322 1.288.125 2.193-.262a66.43 66.43 0 0 0 3.468-1.599c.889-.442 1.51-.918 1.731-1.422s.146-1.377-.142-2.131c-.376-.986-.79-1.95-1.24-2.889-.452-.944-1.076-1.418-1.526-1.489-.45-.072-1.365.023-2.142 1.057-1.489 1.981-2.432 4.261-2.828 6.804-.143.911.101 1.609.486 1.931z"/>
  <path fill="#01577C" d="M40.378 64.194c-.309-.382-1.231-.014-2.769.686-.989.45-2.007.898-3.057 1.343a156.796 156.796 0 0 1-11.003 4.16c-1.175.396-1.794.909-1.982 1.724-.188.815-.035 1.73.654 2.868a37.987 37.987 0 0 0 4.304 5.787c1.287 1.425 2.243 1.745 3.827 1.338 1.584-.407 2.285-2.401 2.622-3.196 2.018-4.759 4.116-8.844 6.289-12.252.904-1.414 1.424-2.076 1.115-2.458z"/>
  <path fill="#C6C7C8" d="M65.64 37.028c.437.616 1.438.52 2.667.295 4.961-.907 9.462-2.409 13.275-4.021 1.224-.517 2.098-1.23 2.238-1.769.14-.539-.215-1.551-.982-2.373a38.347 38.347 0 0 0-10.92-8.15c-1.094-.546-1.591-.766-2.427-.42-.868.36-1.158.86-1.32 1.973-.486 3.344-1.286 7.549-2.599 12.041-.313 1.079-.369 1.809.068 2.424z"/>
  <path fill="#AAA" d="M80.459 51.043c-.858-.5-1.25-.429-2.302-.113a78.973 78.973 0 0 1-8.031 1.957c-2.168.41-4.57.655-4.585 1.185-.012.399 2.36.563 4.801 1.284 2.946.87 6.006 2.088 9.197 3.61 1.696.809 2.946 1.484 3.571.957.659-.556.301-1.491-.101-2.537-.507-1.321-1.016-2.733-1.352-4.289-.214-.997-.339-1.554-1.198-2.054z"/>
  <path fill="#C6C7C8" d="M56.347 38.15c.613.03 1.223.049 1.829.056 1.599.019 2.966.054 4.035-.745s1.586-2.13 1.97-3.453a85.243 85.243 0 0 0 1.982-8.476c.463-2.548.47-4.538-.132-5.835-.602-1.297-2.958-1.869-5.046-2.208a37.798 37.798 0 0 0-5.806-.487c-1.687-.011-2.615.142-3.683 1.341-1.068 1.199-1.289 2.125-1.144 3.948.236 2.98.626 6.409 1.224 10.347.248 1.633.572 3.47 1.475 4.369.902.899 2.929 1.124 3.296 1.143z"/>
  <path fill="#AAA" d="M80.36 47.498c.687-.887.813-1.831 1.02-3.025.694-4.004 2.534-6.754 4.151-8.477.551-.588.784-.71.977-1.108a.986.986 0 0 0-.039-.982c-.207-.343-.528-.551-1.004-.497-.562.064-.843.188-1.548.508-3.436 1.561-7.515 3.09-12.05 4.187-.779.188-1.571.363-2.376.524-1.779.354-3.739.646-4.807 1.301-1.068.655-1.606 1.885-2.118 3.065a57.516 57.516 0 0 1-2.539 5.15c-.874 1.565-1.18 2.247-.618 3.229.591 1.033 1.61 1.231 3.742 1.013a78.524 78.524 0 0 0 14.253-2.793c1.297-.384 2.268-1.208 2.956-2.095zM91.35 46.572c-.703-.371-1.28-.352-2.296.139a70.314 70.314 0 0 1-4.053 1.803c-.746.304-1.235.918-1.546 1.57-.311.652-.497 1.948-.211 3.134a23.19 23.19 0 0 0 3.763 8.135c1.288 1.787 2.639 2.181 3.917 1.8s1.631-1.24 1.889-3.332a37.975 37.975 0 0 0-.245-10.947c-.15-.883-.515-1.931-1.218-2.302zM58.71 47.408a55.494 55.494 0 0 0 2.101-4.178c.548-1.211.478-1.976.101-2.643-.377-.666-1.329-.864-2.731-.878a49.275 49.275 0 0 1-1.53-.038c-.504-.021-1.888.094-2.6.879-.712.785-.721 2.042-.366 3.764.23 1.114.473 2.258.73 3.432.287 1.311.623 2.41 1.311 2.569s1.708-.867 2.462-2.038c.187-.29.361-.579.522-.869z"/>
  <path fill="#274F66" d="M41.293 29.272c.192 1.001.345 1.988.46 2.96.133 1.124.446 1.953.823 2.619.377.666 1.129 1.212 2.029 1.452.345.092.695.181 1.049.268.994.244 1.62-.202 2.16-.787s.421-1.584.206-3.007c-.626-4.145-1.028-7.758-1.261-10.904-.104-1.402-.441-2.423-.99-2.904-.549-.48-1.646-.427-2.523-.146-.382.122-.761.25-1.137.384-1.145.406-1.766 1.182-2.026 1.75-.259.568-.537 1.665-.087 3.125a48.613 48.613 0 0 1 1.297 5.19z"/>
  <path fill="#0D90CC" d="M62.247 73.115c-.474.523-.336 1.385.15 2.661a196.253 196.253 0 0 0 3.628 8.839c.932 2.126 1.496 3.308 2.927 4.008 1.431.7 3.316.633 4.92-.282a38.217 38.217 0 0 0 2.779-1.748c1.341-.927 1.882-2.341 1.983-3.267.101-.926-.52-1.943-2.133-3.252-2.919-2.369-6.699-4.988-10.802-6.693-1.538-.639-2.977-.789-3.452-.266z"/>
  <path fill="#274F66" d="M36.095 49.459c1.029-.417 2.149-1.891 2.36-2.357.933-2.059 1.498-4.213 1.794-6.368.187-1.364-.069-2.719-.521-3.596-.452-.876-1.54-1.316-2.609-1.764a49.653 49.653 0 0 1-7.048-3.629c-1.305-.812-2.085-1.119-3.072-1.025s-1.805.446-2.499 1.36a38.456 38.456 0 0 0-4.515 7.648c-.536 1.209-.809 2.09-.534 3.129.275 1.039 1.347 1.845 2.687 2.515a68.933 68.933 0 0 0 10.574 4.22 5 5 0 0 0 3.383-.133z"/>
  <path fill="#0D90CC" d="M56.859 72.903c-1.25-1.092-2.473-1.157-3.819-.755-6.53 1.952-11.544 6.45-14.924 10.459-1.537 1.822-1.081 3.358-.8 4.323.282.966.91 2.678 2.879 3.502a37.978 37.978 0 0 0 18.08 2.806c1.86-.167 4.059-1.718 4.613-3.006s.64-2.556-.331-4.788a198.245 198.245 0 0 1-3.578-8.777c-.641-1.688-.87-2.672-2.12-3.764z"/>
  <path fill="#01577C" d="M22.68 61.646c3.045-1.471 6.751-3.659 9.99-6.704.982-.924 1.33-2.02 1.176-2.656-.154-.636-1.035-1.079-2.276-1.475a70.306 70.306 0 0 1-10.254-4.17c-1.177-.592-1.782-.656-2.566-.418-.784.238-1.145.692-1.343 1.708-.761 3.917-.914 8-.38 12.121.159 1.228.671 1.907 1.404 2.355.733.448 1.788.374 3.208-.273.342-.155.69-.318 1.041-.488z"/>
  <path fill="#429AD5" d="M58.107 58.274c-1.029 1.114-.417 3.072-.336 3.375.416 1.553.866 3.106 1.344 4.653.413 1.336 1.297 2.402 2.197 3.242.9.84 2.369 1.447 4.069 2.083 2.659.996 5.417 2.458 8.239 4.383a55.668 55.668 0 0 1 3.118 2.292c2.008 1.583 3.009 2.015 4.71 1.893 1.701-.123 3.207-.961 4.513-2.791.5-.7.976-1.416 1.427-2.148 1.144-1.855 1.855-3.688 1.182-5.725-.673-2.037-2.11-2.688-4.13-3.891-7.15-4.256-14.899-7.62-22.24-8.321-1.877-.181-3.064-.16-4.093.955z"/>
  <path fill="#01577C" d="M33.981 64.828c4.108-1.743 7.775-3.544 10.974-5.382 1.446-1.419 2.92-2.569 4.42-3.446.864-.505 1.52-.912 1.494-1.218-.026-.306-.512-.583-1.503-.646l-.877-.06a74.387 74.387 0 0 1-7.484-.938c-1.358-.241-2.318-.315-3.403-.029s-1.826.829-2.52 1.572c-4.361 4.665-9.954 7.691-14.41 9.541-.925.384-1.559.713-1.869 1.22s-.372 1.07-.166 1.701c.073.224.149.448.226.67.263.757.795 1.365 1.445 1.568.65.203 1.489.001 2.692-.404a154.919 154.919 0 0 0 10.981-4.149z"/>
  <path fill="#429AD5" d="M55.238 69.28c.414-.773.606-1.635.24-2.847-.38-1.257-.74-2.517-1.079-3.777-.093-.345-.557-2.534-1.665-2.939-1.108-.405-2.42-.248-3.8.892-4.503 3.721-8.462 10.29-11.721 17.471-1.033 2.276-.977 2.693-.605 2.94s.655.047 2.766-2.069c3.343-3.351 7.759-6.61 13.234-8.247 1.285-.383 2.216-.651 2.63-1.424z"/>
  <path fill="#274F66" d="M31.947 31.091a48.285 48.285 0 0 0 4.51 2.32c1.226.552 2.386.467 2.916.122.53-.344.84-1.544.604-2.957a47.066 47.066 0 0 0-1.183-5.198c-.498-1.732-1.199-2.63-2.039-2.824-.84-.194-2.407.401-3.822 1.396-.49.344-.97.699-1.441 1.065-1.318 1.023-2.014 2.039-1.971 2.966.044.927.767 2.14 2.426 3.11zM39.307 50.413c.317.717 1.159 1.104 2.452 1.325 2.171.37 4.452.658 6.842.835 1.131.084 2.089-.224 2.427-.714.338-.49.408-1.291.172-2.349a284.354 284.354 0 0 1-1.576-7.529c-.21-1.077-.617-1.965-1.128-2.587-.511-.622-1.217-.888-2.058-1.075a62.789 62.789 0 0 1-1.129-.262c-1.14-.277-2.023.169-2.417.528-.394.36-.996 1.28-1.185 2.569-.374 2.554-1.077 4.923-2.109 7.062-.164.337-.609 1.481-.291 2.197z"/>
</svg>